<svg width="24" height="24" viewBox="0 0 24 24" fill="none" xmlns="http://www.w3.org/2000/svg">
<path d="M17.9984 8.06429L6.00259 8.109L5.72552 4.78353C5.63661 4.02559 5.83987 3.26226 6.29393 2.6489C6.74798 2.03554 7.41871 1.61826 8.16958 1.482L8.95893 1.33871C10.9712 0.973505 13.0329 0.973729 15.0451 1.33937L15.831 1.48217C16.5817 1.61858 17.2523 2.03589 17.7062 2.6492C18.1601 3.26251 18.3633 4.02572 18.2744 4.78353L17.9984 8.06429Z" fill="#999191"/>
<path d="M6.00879 8.10901C6.05305 9.67262 6.70678 11.157 7.83043 12.2452C8.95408 13.3334 10.4586 13.9393 12.0228 13.9334C13.5871 13.9276 15.087 13.3105 16.2025 12.2139C17.318 11.1174 17.9607 9.62816 17.9932 8.06427L6.00879 8.10901Z" fill="#999191"/>
<path d="M17.198 13.3847V13.3848L12.707 17.8758C12.6142 17.9687 12.5039 18.0423 12.3826 18.0926C12.2613 18.1429 12.1313 18.1687 12 18.1687C11.8686 18.1687 11.7386 18.1429 11.6173 18.0926C11.496 18.0423 11.3858 17.9687 11.2929 17.8758L6.80194 13.3848V13.3847C5.49347 14.1771 4.38544 15.2607 3.56403 16.5511C2.74262 17.8416 2.22996 19.3041 2.06594 20.825C2.05073 20.9647 2.06511 21.1059 2.10813 21.2396C2.15116 21.3734 2.22187 21.4965 2.31565 21.6011C2.40944 21.7056 2.5242 21.7893 2.65247 21.8465C2.78073 21.9038 2.91961 21.9334 3.06008 21.9334H20.9399C21.0803 21.9334 21.2192 21.9038 21.3475 21.8465C21.4757 21.7893 21.5905 21.7056 21.6843 21.6011C21.7781 21.4965 21.8488 21.3734 21.8918 21.2396C21.9348 21.1059 21.9492 20.9647 21.934 20.825C21.77 19.3041 21.2573 17.8416 20.4359 16.5511C19.6145 15.2607 18.5065 14.1771 17.198 13.3847Z" fill="#999191"/>
<path d="M15.6907 12.6541C14.6354 13.4748 13.3366 13.9204 11.9997 13.9204C10.6628 13.9204 9.364 13.4748 8.30871 12.6539C7.78693 12.855 7.28293 13.0995 6.802 13.3848L11.293 17.8758C11.3858 17.9687 11.4961 18.0423 11.6174 18.0926C11.7387 18.1429 11.8687 18.1687 12 18.1687C12.1313 18.1687 12.2614 18.1429 12.3827 18.0926C12.504 18.0423 12.6142 17.9687 12.7071 17.8758L17.1981 13.3848C16.717 13.0994 16.2129 12.8549 15.6911 12.6538L15.6907 12.6541Z" fill="#999191"/>
</svg>
